# xmcd
#
# Track frame offsets: 
#        150
#        22545
#        54878
#        75738
#        100670
#        121025
#        144733
#        166125
#        190253
#        211053
#        234570
#        258518
#        278680
#        298773
#
# Disc length: 4411 seconds
#
# Revision: 4
# Processed by: cddbd v1.5.2PL0 Copyright (c) Steve Scherf et al.
# Submitted via: ExactAudioCopy v0.99pb5
#
DISCID=b211390e
DTITLE=Freddie Jackson - The Greatest Hits Of
DYEAR=1900
DGENRE=Soul
TTITLE0=Do Me Again (Let Freddie Do You Edit)
TTITLE1=Rock Me Tonight
TTITLE2=I Don't Want To Lose Your Love
TTITLE3=I Could Use A Little Love (Right Now)
TTITLE4=Jam Tonight
TTITLE5=Nice and Slow
TTITLE6=You Are My Lady
TTITLE7=Just Love Me Down
TTITLE8=Have You Ever Loved Somebody (Edit)
TTITLE9=Hey Lover
TTITLE10=Love Is Just A Touch Away
TTITLE11=Tasty Love
TTITLE12=Christmas Forever
TTITLE13=Rock Me Tonight (Remix)
EXTD=
EXTT0=
EXTT1=
EXTT2=
EXTT3=
EXTT4=
EXTT5=
EXTT6=
EXTT7=
EXTT8=
EXTT9=
EXTT10=
EXTT11=
EXTT12=
EXTT13=
PLAYORDER=
